<svg width="42" height="50" viewBox="0 0 42 50" fill="none" xmlns="http://www.w3.org/2000/svg">
<path d="M42 50H10.8358V47.4577H38.2202L21 6.52511L2.68781 50H0L21 0L42 50Z" fill="#2D2D2D"/>
<path d="M21.032 30.1376C21.8159 30.1377 22.4883 30.4197 23.0482 30.9846C23.6641 31.5495 23.9723 32.2278 23.9724 33.0187C23.9724 33.8661 23.6642 34.5731 23.0482 35.1381C22.4883 35.703 21.8159 35.985 21.032 35.9851C20.248 35.9851 19.5473 35.7031 18.9313 35.1381C18.3713 34.5731 18.0917 33.8661 18.0917 33.0187C18.0918 32.2278 18.3713 31.5495 18.9313 30.9846C19.5473 30.4196 20.248 30.1376 21.032 30.1376Z" fill="#2D2D2D"/>
</svg>
